<svg width="56" height="56" viewBox="0 0 56 56" fill="none" xmlns="http://www.w3.org/2000/svg">
<circle cx="28" cy="28" r="27.5" stroke="#007AFF"/>
<path d="M18.3209 23.3333C18.3209 20.6746 19.3771 18.1248 21.2571 16.2448C23.1371 14.3648 25.6869 13.3086 28.3456 13.3086C31.0043 13.3086 33.5541 14.3648 35.4341 16.2448C37.3141 18.1248 38.3703 20.6746 38.3703 23.3333V33.358C38.3703 36.0167 37.3141 38.5665 35.4341 40.4465C33.5541 42.3265 31.0043 43.3827 28.3456 43.3827C25.6869 43.3827 23.1371 42.3265 21.2571 40.4465C19.3771 38.5665 18.3209 36.0167 18.3209 33.358V23.3333Z" stroke="#007AFF" stroke-width="1.5" stroke-linejoin="round"/>
<path d="M28.3456 19.9917V26.6748" stroke="#007AFF" stroke-width="1.5" stroke-linecap="round" stroke-linejoin="round"/>
<path d="M28.3457 31.1113L28.3457 20.0496M28.3457 20.0496L24.1975 24.1977M28.3457 20.0496L32.4938 24.1977" stroke="#007AFF" stroke-width="2" stroke-linecap="round" stroke-linejoin="round"/>
</svg>
